<?xml version="1.0" encoding="utf-8" ?><svg xmlns="http://www.w3.org/2000/svg" xmlns:xlink="http://www.w3.org/1999/xlink" width="1024" height="1024" viewBox="0 0 1024 1024"><path fill="#1C84C2" d="M322.594 477.475C346.457 477.707 370.687 477.511 394.557 477.402C383.705 498.891 373.115 520.511 362.79 542.258C359.879 537.276 353.324 526.186 351.637 520.994C316.012 546.148 282.981 575.761 245.577 598.532C242.638 600.322 239.724 602.216 236.803 604.041C225.68 610.786 212.606 619.104 201.961 626.505C206.7 609.969 212.269 586.166 215.763 568.982C224.325 566.18 232.089 563.071 240.51 559.952C238.995 565.675 237.397 571.376 235.716 577.052C245.88 568.34 259.214 558.493 269.954 550.085L336.662 497.65C332.463 491.631 326.194 483.434 322.594 477.475Z"/><path fill="#1C84C2" d="M275.816 398.777C277.654 400.007 290.754 433.729 292.675 438.337C300.902 458.064 309.573 478.032 317.231 497.966L294.227 498.042C288.715 483.328 282.195 468.007 276.298 453.355C273.8 458.356 270.652 466.729 268.484 472.179C265.211 480.405 261.08 490.059 258.465 498.353C243.739 498.669 223.476 500.196 208.766 501.896C215.279 507.507 220.952 512.577 227.713 518.106C232.607 522.374 237.462 526.266 242.326 530.661C234.039 533.294 225.564 535.293 216.974 536.641L156.4 484.999C165.12 485.202 180.321 483.369 189.466 482.512C207.291 480.725 225.142 479.216 243.014 477.986C247.754 465.813 253.407 453.146 258.425 440.986C264.143 427.129 269.77 412.414 275.816 398.777Z"/><path fill="#112B4D" d="M439.725 488.651C444.958 487.905 451.792 488.786 456.752 490.602C464.713 493.468 471.162 499.456 474.611 507.182C478.49 515.992 478.709 525.982 475.221 534.953C471.311 544.932 464.57 549.782 455.099 553.835C463.782 559.468 466.469 558.91 474.584 552.901C476.722 555.509 479.111 558.881 481.165 561.627C479.531 563.123 477.636 564.385 475.827 565.678C473.176 567.251 470.189 568.294 467.272 568.711C454.007 570.607 448.199 562.42 438.699 556.163C433.602 553.621 428.322 552.602 423.619 549.182C408.004 537.828 405.001 514.038 418.221 499.625C424.148 493.163 430.965 490.043 439.725 488.651ZM447.618 541.299C458.402 539.196 465.416 528.721 463.253 517.949C461.091 507.177 450.577 500.222 439.817 502.445C429.142 504.65 422.253 515.063 424.399 525.75C426.545 536.438 436.919 543.385 447.618 541.299Z"/><path fill="#115787" d="M330.887 546.44C332.961 548.648 347.4 615.538 350.754 626.361C337.719 618.588 324.413 609.767 311.518 601.578C301.65 595.498 291.911 589.214 282.305 582.729C288.146 578.004 295.071 573.033 301.119 568.523C306.583 572.344 313.117 576.929 318.245 581.067C316.316 574.047 314.43 567.015 312.587 559.972C318.75 555.563 324.656 550.77 330.887 546.44Z"/><path fill="#112B4D" d="M706.253 488.626C716.028 487.586 723.532 489.578 732.015 494.126C730.677 497.799 729.042 501.686 727.585 505.338C720.076 501.497 708.204 497.388 700.649 503.199C699.109 504.384 698.187 505.406 697.934 507.397C699.88 515.55 722.025 515.889 729.668 523.049C740.497 533.193 734.799 548.069 722.184 553.269C717.556 555.177 712.115 555.539 706.819 555.529C697.362 555.484 690.354 552.497 682.313 547.931C683.93 543.69 685.916 540.126 687.47 535.637C693.467 539.042 699.191 542.574 706.251 543.032C709.685 543.471 721.174 541.833 720.578 536.748C719.763 529.791 704.468 528.018 699.342 526.433C696.55 525.566 693.904 524.284 691.493 522.629C682.436 516.281 682.131 505.897 688.04 496.86C691.695 491.269 699.857 489.459 706.253 488.626Z"/><path fill="#F6842A" d="M295.734 511.979L296.059 512.172C295.525 513.889 291.212 517.256 289.596 518.703C276.112 530.769 260.791 541.184 244.594 549.459C224.323 559.413 198.849 570.133 176.134 563.743C164.741 560.538 165.889 549.597 169.007 540.628C172.079 533.471 178.01 524.615 183.842 519.455C183.352 520.875 182.895 522.307 182.471 523.748C176.441 545.029 192.864 547.236 209.232 545.265C239.199 541.656 270.71 528.733 295.734 511.979Z"/><path fill="#112B4D" d="M627.516 486.146C632.18 486.146 636.844 486.059 641.505 485.886L641.759 524.327C645.192 520.631 658.351 506.975 661.977 504.515C667.535 504.549 673.093 504.548 678.651 504.514C672.081 511.582 665.429 518.386 658.975 525.581C663.021 531.591 668.578 538.409 673.092 544.222C675.32 547.428 678.512 551.318 680.95 554.471C675.068 554.464 669.187 554.377 663.307 554.208C659.764 550.24 651.47 539.331 648.37 534.931L641.973 540.844C641.784 545.338 641.844 549.734 641.877 554.228C637.339 554.243 632.44 554.163 627.939 554.446C627.278 548.059 627.529 538.914 627.506 532.323C627.452 516.852 627.867 501.633 627.516 486.146Z"/><path fill="#112B4D" d="M800.686 503.701C831.931 500.258 824.221 534.712 825.33 554.268C822.091 554.371 816.067 554.851 813.232 553.632C812.646 552.436 812.564 551.878 812.37 550.555C808.425 551.075 803.111 556.123 796.007 555.35C789.476 554.639 786.22 552.745 781.898 547.858C774.758 535.495 782.361 527.013 794.989 525.116C800.687 524.26 805.582 524.427 811.295 525.002C810.267 521.623 810.054 520.757 808.228 517.686C799.812 512.641 794.255 515.954 785.997 519.527L780.906 509.896C787.385 505.527 793.084 504.407 800.686 503.701ZM804.445 544.961C807.812 543.122 812.727 539.759 811.32 535.363C808.558 532.22 804.752 532.964 800.902 533.142C788.032 534.825 792.463 547.251 804.445 544.961Z"/><path fill="#112B4D" d="M521.368 504.714C525.984 504.688 530.599 504.635 535.215 504.554C535.484 510.766 535.371 517.847 535.402 524.125L535.373 554.39C531.677 554.031 526.062 554.849 523.047 553.884C522.062 552.807 522.115 551.961 521.879 550.479L521.785 549.861C519.669 549.738 514.016 557.469 502.03 554.711C496.943 553.528 492.575 550.286 489.97 545.76C488.644 543.497 487.267 539.492 486.995 536.942C486.372 531.112 486.1 509.307 487.225 504.71C491.564 504.863 496.193 504.822 500.558 504.861C500.5 511.788 499.132 537.097 504.6 540.519C524.313 552.856 522.681 514.884 521.368 504.714Z"/><path fill="#112B4D" d="M598.113 503.718C607.873 503.459 615.633 508.035 620.288 516.581C616.438 518.331 613.275 520.067 609.561 522.112C609.261 521.805 608.96 521.5 608.655 521.198C605.597 518.177 601.651 515.271 597.193 515.614C579.308 516.993 582.797 544.158 599.27 543.331C603.466 543.12 606.999 539.496 609.385 536.295L614.329 539.025C616.163 540.146 618.189 541.188 620.09 542.211C619.33 543.44 618.509 544.63 617.631 545.777C604.264 563.466 573.238 555.287 571.327 531.483C570.715 524.518 572.966 517.604 577.563 512.334C583.356 505.772 589.89 504.15 598.113 503.718Z"/><path fill="#112B4D" d="M757.654 492.732L758.678 492.751C760.157 494.543 759.38 502.783 759.272 505.688L771.156 505.476C771.058 509.079 771.073 512.786 771.043 516.4C768.162 516.064 762.624 516.352 759.51 516.43C759.571 523.29 758.503 531.394 759.596 537.994C760.766 545.056 767.362 543.138 771.784 541.764L774.895 552.387C771.749 553.829 770.895 554.079 767.61 554.889C741.825 559.862 744.837 532.416 745.433 516.213C743.019 516.211 740.606 516.224 738.193 516.251L738.092 505.232C740.317 505.262 743.2 505.118 745.47 505.065C745.367 501.112 745.482 496.768 745.507 492.785C749.591 492.917 753.573 492.812 757.654 492.732Z"/><path fill="#112B4D" d="M862.08 504.104L867.452 503.849L867.367 516.668C862.431 517.251 858.787 517.624 855.083 521.585C848.959 528.135 850.997 545.386 851.437 554.355C847.097 554.429 841.73 554.644 837.535 553.931C836.882 538.566 837.391 520.237 837.485 504.64C841.914 504.471 846.422 504.579 850.859 504.63C850.58 506.613 850.542 509.152 850.451 511.195C854.638 506.808 856.185 505.559 862.08 504.104Z"/><path fill="#112B4D" d="M548.258 504.643L562.049 504.566C561.98 509.645 562.514 552.254 561.784 554.186L560.375 554.282C555.715 554.184 552.413 554.169 547.788 554.51C547.64 549.06 547.207 506.913 548.258 504.643Z"/><path fill="#112B4D" d="M774.569 573.079C780.847 571.867 786.91 576.002 788.076 582.288C789.241 588.575 785.063 594.607 778.768 595.727C772.537 596.835 766.58 592.709 765.427 586.487C764.273 580.264 768.356 574.277 774.569 573.079ZM777.238 591.314C780.924 591.07 783.735 587.917 783.554 584.228C783.374 580.538 780.269 577.674 776.577 577.792C774.132 577.869 771.919 579.26 770.788 581.43C769.658 583.599 769.786 586.209 771.122 588.258C772.459 590.307 774.797 591.475 777.238 591.314Z"/><path fill="#112B4D" d="M646.143 573.048C652.371 572.526 657.856 577.118 658.438 583.34C659.02 589.562 654.482 595.091 648.265 595.733C644.946 596.076 641.644 594.946 639.23 592.642C636.816 590.338 635.534 587.092 635.721 583.76C636.041 578.091 640.485 573.523 646.143 573.048ZM647.767 591.282C651.453 590.902 654.147 587.624 653.805 583.934C653.464 580.243 650.214 577.515 646.52 577.819C644.096 578.017 641.966 579.503 640.941 581.709C639.917 583.915 640.156 586.501 641.568 588.482C642.98 590.462 645.347 591.531 647.767 591.282Z"/><path fill="#112B4D" d="M664.598 573.514C666.545 573.504 668.493 573.516 670.44 573.552C680.832 573.793 689.649 579.953 678.855 588.518C680.324 590.327 681.883 591.837 682.433 594.032C681.96 595.72 682.415 594.947 680.538 596.113C677.311 594.356 672.504 586.199 669.431 590.192C669.504 593.202 670.11 594.327 667.52 595.975C666.669 595.863 666.42 595.977 665.755 595.344C663.413 593.115 664.51 577.612 664.598 573.514ZM677.363 584.114C678.049 582.346 678.217 582.151 677.914 580.227C675.794 577.307 672.81 577.846 669.423 577.962L669.448 585.066C672.905 584.956 673.986 584.974 677.363 584.114Z"/><path fill="#112B4D" d="M513.904 573.477C515.448 573.507 516.992 573.547 518.536 573.597C528.343 573.927 540.726 578.865 528.408 588.381C529.765 590.26 531.874 592.619 531.76 594.84L530.639 595.836C525.666 594.615 527.344 592.585 523.617 589.876C521.906 589.623 520.954 589.334 519.28 589.796C518.93 592.118 518.896 595.239 516.863 596.508C515.998 596.18 516.11 596.347 515.593 595.822C513.127 593.324 513.947 577.713 513.904 573.477ZM526.99 583.983C527.545 582.136 527.875 581.655 527.207 579.85C525.438 577.919 523.993 578.085 521.447 577.968L518.863 577.87C518.793 584.119 519.798 587.376 526.99 583.983Z"/><path fill="#112B4D" d="M808.492 585.893C808.352 581.2 807.284 576.693 811.154 573.433C815.481 573.557 813.91 592.53 813.854 595.81C807.929 594.941 802.809 587.104 799.115 582.379C799.204 585.778 800.237 594.664 796.04 595.45L795.082 594.631C793.207 590.296 793.892 578.874 793.917 573.409C800.895 573.92 803.822 580.729 808.492 585.893Z"/><path fill="#112B4D" d="M612.553 573.506C619.199 573.408 634.077 572.431 630.608 584.112C629.815 586.781 627.036 588.009 624.676 589.056C622.61 589.251 620.168 589.262 618.066 589.325C617.25 590.382 617.623 592.383 617.359 594.42L616.329 595.164C614.552 595.379 614.618 595.503 613.08 594.656C612.112 591.984 612.441 577.195 612.553 573.506ZM617.988 585.413C620.625 585.194 622.687 585.141 625.245 584.413C625.893 582.377 626.095 582.157 625.562 580.194C623.689 577.571 620.467 577.911 617.505 577.969C617.538 580.676 617.488 582.721 617.988 585.413Z"/><path fill="#112B4D" d="M564.19 573.389C570.246 574.331 574.734 581.259 578.843 586.109C578.865 581.674 578.42 577.672 580.623 573.821L581.607 573.578C585.076 577.169 584.469 591.134 583.3 595.937C576.866 593.131 573.361 587.946 569.113 582.593C569.228 585.887 570.656 594.839 566.255 595.081L565.176 594.103C563.386 589.653 564.109 578.826 564.19 573.389Z"/><path fill="#112B4D" d="M545.76 573.509C553.382 573.229 553.518 582.616 556.65 587.98C557.633 589.665 559.736 593.321 559.617 595.125C554.775 596.914 554.49 591.593 551.152 590.739C548.593 590.548 545.734 590.651 543.146 590.675C541.862 593.208 540.981 595.649 537.69 595.17L537.075 594.17C537.115 589.204 543.186 578.523 545.76 573.509Z"/><path fill="#112B4D" d="M715.68 573.664C717.746 573.679 718.308 573.55 720.164 574.305C722.102 577.05 730.62 593.17 728.231 595.545C723.047 595.219 725.265 592.299 722.029 590.444C719.167 590.518 716.418 590.434 713.559 590.361C712.71 592.048 712.159 594.118 710.489 595.012C708.898 594.925 708.742 595.025 707.296 594.279C707.121 591.493 714.037 576.931 715.68 573.664Z"/><path fill="#112B4D" d="M595.365 573.632C598.654 573.434 603.761 573.092 605.985 576.09L605.559 576.845C602.867 578.168 598.164 578.389 595.07 578.638L594.836 579.367C597.462 583.324 609.849 584.147 608.558 590.786C606.88 593.067 603.189 594.689 600.531 595.502C597.447 595.569 589.77 595.838 589.63 591.762C592.151 588.874 600.093 594.143 601.74 589.755C598.058 585.799 589.385 584.725 589.198 578.686C590.504 575.849 592.579 575.045 595.365 573.632Z"/><path fill="#112B4D" d="M551.864 482.138C555.951 481.887 559.536 482.013 562.226 485.64C563.405 487.198 563.857 489.187 563.469 491.102C562.766 494.597 560.59 495.978 557.801 497.701C545.404 498.641 541.436 488.092 551.864 482.138Z"/><path fill="#112B4D" d="M686.493 573.586C691.233 573.496 701.462 572.556 704.82 575.097C705.343 576.734 705.391 575.97 704.824 577.47C702.969 578.285 700.638 578.038 698.552 578.02C698.429 581.906 698.349 585.794 698.313 589.682C698.54 592.138 698.53 596.639 694.73 595.479C692.47 592.832 693.158 581.87 693.175 578.002C691.2 578.072 689.133 578.379 687.395 577.565C686.315 576.229 686.517 575.333 686.493 573.586Z"/><path fill="#112B4D" d="M490.527 573.506C494.808 573.444 505.939 572.63 508.753 574.974C508.952 576.629 509.105 575.884 508.363 577.302C506.797 578.235 504.473 577.921 502.552 577.887L502.531 589.527C502.597 591.993 503.169 593.981 501.007 595.361C499.441 595.17 499.193 595.263 497.842 594.417C497.038 591.023 497.444 581.962 497.516 578.036C495.464 578.015 493.158 578.21 491.337 577.396C490.126 575.765 490.539 576.039 490.527 573.506Z"/><path fill="#112B4D" d="M738.686 573.75C741.472 573.64 748.123 572.911 749.119 576.404C747.608 578.373 744.82 577.949 742.501 577.972C742.511 582.832 742.751 590.502 742.214 595.124C739.696 595.045 740.007 595.455 738.362 594.22C736.576 590.576 737.475 582.559 737.531 577.987C735.262 577.993 731.469 578.388 730.638 575.773C732.822 573.133 735.501 573.726 738.686 573.75Z"/><path fill="#112B4D" d="M754.546 573.526C756.437 573.447 756.576 573.382 758.497 573.784C760.221 575.606 759.495 591.541 759.5 595.31C757.696 595.176 757.246 595.103 755.478 594.701C753.703 592.698 754.483 577.058 754.546 573.526Z"/></svg>